<mxfile host="app.diagrams.net" agent="Mozilla/5.0 (Windows NT 10.0; Win64; x64; rv:138.0) Gecko/20100101 Firefox/138.0" version="27.0.9">
  <diagram name="Page-1" id="ldX45UWWgHhQOTZwwglj">
    <mxGraphModel dx="2938" dy="1626" grid="1" gridSize="10" guides="1" tooltips="1" connect="1" arrows="1" fold="1" page="1" pageScale="1" pageWidth="827" pageHeight="1169" math="0" shadow="0">
      <root>
        <mxCell id="0" />
        <mxCell id="1" parent="0" />
        <mxCell id="CX8VXaGz0tjRuIeD6k8V-15" style="edgeStyle=orthogonalEdgeStyle;rounded=0;orthogonalLoop=1;jettySize=auto;html=1;entryX=0.5;entryY=0;entryDx=0;entryDy=0;" parent="1" source="7jAFLYlnToqP1OYzs7xx-1" target="7jAFLYlnToqP1OYzs7xx-2" edge="1">
          <mxGeometry relative="1" as="geometry" />
        </mxCell>
        <mxCell id="7jAFLYlnToqP1OYzs7xx-1" value="&lt;font style=&quot;font-size: 22px; color: light-dark(rgb(255, 255, 255), rgb(237, 237, 237));&quot;&gt;Input&lt;/font&gt;" style="rounded=0;whiteSpace=wrap;html=1;rotation=-90;fillColor=light-dark(#5ba457, #1f2f1e);strokeColor=light-dark(#000000, #446e2c);horizontal=0;textDirection=vertical-rl;strokeWidth=2;" parent="1" vertex="1">
          <mxGeometry x="-10" y="180" width="120" height="60" as="geometry" />
        </mxCell>
        <mxCell id="CX8VXaGz0tjRuIeD6k8V-16" style="edgeStyle=orthogonalEdgeStyle;rounded=0;orthogonalLoop=1;jettySize=auto;html=1;entryX=0;entryY=0.5;entryDx=0;entryDy=0;" parent="1" source="7jAFLYlnToqP1OYzs7xx-2" target="jVrsydaNmCYnU5L1eRm4-1" edge="1">
          <mxGeometry relative="1" as="geometry">
            <mxPoint x="180" y="210" as="targetPoint" />
          </mxGeometry>
        </mxCell>
        <mxCell id="7jAFLYlnToqP1OYzs7xx-2" value="&lt;font style=&quot;font-size: 22px;&quot;&gt;Conv2D&lt;/font&gt;" style="rounded=0;whiteSpace=wrap;html=1;rotation=-90;fillColor=#1ba1e2;fontColor=#ffffff;strokeColor=light-dark(#000000, #51afe7);strokeWidth=2;" parent="1" vertex="1">
          <mxGeometry x="70" y="180" width="120" height="60" as="geometry" />
        </mxCell>
        <mxCell id="CX8VXaGz0tjRuIeD6k8V-62" style="edgeStyle=orthogonalEdgeStyle;rounded=0;orthogonalLoop=1;jettySize=auto;html=1;entryX=0.5;entryY=0;entryDx=0;entryDy=0;" parent="1" source="7jAFLYlnToqP1OYzs7xx-6" target="jVrsydaNmCYnU5L1eRm4-56" edge="1">
          <mxGeometry relative="1" as="geometry" />
        </mxCell>
        <mxCell id="7jAFLYlnToqP1OYzs7xx-6" value="&lt;font style=&quot;font-size: 22px;&quot;&gt;Conv2D&lt;/font&gt;" style="rounded=0;whiteSpace=wrap;html=1;rotation=-90;fillColor=#1ba1e2;fontColor=#ffffff;strokeColor=light-dark(#000000, #51afe7);strokeWidth=2;" parent="1" vertex="1">
          <mxGeometry x="1060" y="179.56" width="120" height="60" as="geometry" />
        </mxCell>
        <mxCell id="7jAFLYlnToqP1OYzs7xx-8" value="&lt;div&gt;&lt;font style=&quot;font-size: 22px; color: rgb(255, 255, 255);&quot;&gt;Ouput&lt;/font&gt;&lt;/div&gt;" style="rounded=0;whiteSpace=wrap;html=1;rotation=-90;fillColor=light-dark(#5ba457, #1f2f1e);strokeColor=light-dark(#000000, #446e2c);horizontal=0;textDirection=vertical-rl;strokeWidth=2;" parent="1" vertex="1">
          <mxGeometry x="1260" y="179.56" width="120" height="60" as="geometry" />
        </mxCell>
        <mxCell id="7jAFLYlnToqP1OYzs7xx-16" value="&lt;div&gt;3 → 64 Kernel : 3x3&lt;/div&gt;&lt;div&gt;Stride: 1&lt;/div&gt;" style="text;html=1;align=center;verticalAlign=middle;whiteSpace=wrap;rounded=0;" parent="1" vertex="1">
          <mxGeometry x="98" y="100" width="76" height="30" as="geometry" />
        </mxCell>
        <mxCell id="CX8VXaGz0tjRuIeD6k8V-45" value="" style="rounded=1;whiteSpace=wrap;html=1;fillColor=#fad9d5;strokeColor=#ae4132;" parent="1" vertex="1">
          <mxGeometry x="800" y="104.78" width="260" height="209.57" as="geometry" />
        </mxCell>
        <mxCell id="jVrsydaNmCYnU5L1eRm4-51" style="edgeStyle=orthogonalEdgeStyle;rounded=0;orthogonalLoop=1;jettySize=auto;html=1;entryX=0.5;entryY=0;entryDx=0;entryDy=0;" parent="1" source="CX8VXaGz0tjRuIeD6k8V-47" target="CX8VXaGz0tjRuIeD6k8V-51" edge="1">
          <mxGeometry relative="1" as="geometry" />
        </mxCell>
        <mxCell id="CX8VXaGz0tjRuIeD6k8V-47" value="&lt;font style=&quot;font-size: 22px;&quot;&gt;Conv2D&lt;/font&gt;" style="rounded=0;whiteSpace=wrap;html=1;rotation=-90;fillColor=#1ba1e2;fontColor=#ffffff;strokeColor=light-dark(#000000, #51afe7);strokeWidth=2;" parent="1" vertex="1">
          <mxGeometry x="870" y="179.57" width="120" height="60" as="geometry" />
        </mxCell>
        <mxCell id="CX8VXaGz0tjRuIeD6k8V-51" value="&lt;span style=&quot;color: rgb(255, 255, 255);&quot;&gt;&lt;font style=&quot;font-size: 22px;&quot;&gt;LeakyRELU&lt;/font&gt;&lt;/span&gt;" style="rounded=0;whiteSpace=wrap;html=1;rotation=-90;fillColor=#f0a30a;strokeColor=light-dark(#000000, #51afe7);fontColor=#000000;strokeWidth=2;" parent="1" vertex="1">
          <mxGeometry x="959.5" y="179.57" width="120" height="60" as="geometry" />
        </mxCell>
        <mxCell id="CX8VXaGz0tjRuIeD6k8V-57" value="&lt;div&gt;64 → 64 Kernel : 3x3&lt;/div&gt;&lt;div&gt;Stride: 1&lt;/div&gt;" style="text;html=1;align=center;verticalAlign=middle;whiteSpace=wrap;rounded=0;" parent="1" vertex="1">
          <mxGeometry x="892" y="116.25" width="76" height="20" as="geometry" />
        </mxCell>
        <mxCell id="CX8VXaGz0tjRuIeD6k8V-60" value="&lt;font style=&quot;font-size: 18px;&quot;&gt;Upsampling Block X(log&lt;sub&gt;2&lt;/sub&gt;(scale))&lt;/font&gt;" style="text;html=1;align=center;verticalAlign=middle;whiteSpace=wrap;rounded=0;" parent="1" vertex="1">
          <mxGeometry x="806.5" y="60" width="273" height="30" as="geometry" />
        </mxCell>
        <mxCell id="CX8VXaGz0tjRuIeD6k8V-61" value="" style="endArrow=classic;html=1;rounded=0;exitX=1;exitY=0.5;exitDx=0;exitDy=0;entryX=0.5;entryY=0;entryDx=0;entryDy=0;" parent="1" source="CX8VXaGz0tjRuIeD6k8V-45" target="7jAFLYlnToqP1OYzs7xx-6" edge="1">
          <mxGeometry width="50" height="50" relative="1" as="geometry">
            <mxPoint x="690" y="430" as="sourcePoint" />
            <mxPoint x="740" y="380" as="targetPoint" />
          </mxGeometry>
        </mxCell>
        <mxCell id="jVrsydaNmCYnU5L1eRm4-47" style="edgeStyle=orthogonalEdgeStyle;rounded=0;orthogonalLoop=1;jettySize=auto;html=1;entryX=0.5;entryY=0;entryDx=0;entryDy=0;" parent="1" source="jVrsydaNmCYnU5L1eRm4-1" target="jVrsydaNmCYnU5L1eRm4-46" edge="1">
          <mxGeometry relative="1" as="geometry" />
        </mxCell>
        <mxCell id="jVrsydaNmCYnU5L1eRm4-1" value="" style="rounded=1;whiteSpace=wrap;html=1;fillColor=#dae8fc;strokeColor=#6c8ebf;" parent="1" vertex="1">
          <mxGeometry x="200" y="90" width="480" height="240" as="geometry" />
        </mxCell>
        <mxCell id="jVrsydaNmCYnU5L1eRm4-24" style="edgeStyle=orthogonalEdgeStyle;rounded=0;orthogonalLoop=1;jettySize=auto;html=1;entryX=0.5;entryY=0;entryDx=0;entryDy=0;" parent="1" source="jVrsydaNmCYnU5L1eRm4-2" target="jVrsydaNmCYnU5L1eRm4-18" edge="1">
          <mxGeometry relative="1" as="geometry" />
        </mxCell>
        <mxCell id="jVrsydaNmCYnU5L1eRm4-2" value="&lt;font style=&quot;font-size: 22px;&quot;&gt;Dense Block&lt;/font&gt;" style="rounded=1;whiteSpace=wrap;html=1;fillColor=#ffe6cc;strokeColor=#d79b00;" parent="1" vertex="1">
          <mxGeometry x="230" y="111.25" width="66.5" height="70" as="geometry" />
        </mxCell>
        <mxCell id="jVrsydaNmCYnU5L1eRm4-37" style="edgeStyle=orthogonalEdgeStyle;rounded=0;orthogonalLoop=1;jettySize=auto;html=1;entryX=0.5;entryY=0;entryDx=0;entryDy=0;" parent="1" source="jVrsydaNmCYnU5L1eRm4-3" target="jVrsydaNmCYnU5L1eRm4-20" edge="1">
          <mxGeometry relative="1" as="geometry">
            <Array as="points">
              <mxPoint x="440" y="146" />
            </Array>
          </mxGeometry>
        </mxCell>
        <mxCell id="jVrsydaNmCYnU5L1eRm4-3" value="&lt;font style=&quot;font-size: 22px;&quot;&gt;Dense Block&lt;/font&gt;" style="rounded=1;whiteSpace=wrap;html=1;fillColor=#ffe6cc;strokeColor=#d79b00;" parent="1" vertex="1">
          <mxGeometry x="354.38" y="111.25" width="66.5" height="70" as="geometry" />
        </mxCell>
        <mxCell id="jVrsydaNmCYnU5L1eRm4-4" value="&lt;font style=&quot;font-size: 22px;&quot;&gt;Dense Block&lt;/font&gt;" style="rounded=1;whiteSpace=wrap;html=1;fillColor=#ffe6cc;strokeColor=#d79b00;" parent="1" vertex="1">
          <mxGeometry x="480" y="111.25" width="66.5" height="70" as="geometry" />
        </mxCell>
        <mxCell id="jVrsydaNmCYnU5L1eRm4-9" value="&lt;font style=&quot;font-size: 22px;&quot;&gt;Residual in Residual Dense Block X 23&lt;/font&gt;" style="text;html=1;align=center;verticalAlign=middle;whiteSpace=wrap;rounded=0;" parent="1" vertex="1">
          <mxGeometry x="243.5" y="60" width="413" height="30" as="geometry" />
        </mxCell>
        <mxCell id="jVrsydaNmCYnU5L1eRm4-10" value="" style="endArrow=classic;html=1;rounded=0;exitX=0;exitY=0.5;exitDx=0;exitDy=0;entryX=0.5;entryY=1;entryDx=0;entryDy=0;" parent="1" source="jVrsydaNmCYnU5L1eRm4-1" target="jVrsydaNmCYnU5L1eRm4-15" edge="1">
          <mxGeometry width="50" height="50" relative="1" as="geometry">
            <mxPoint x="410" y="330" as="sourcePoint" />
            <mxPoint x="460" y="280" as="targetPoint" />
            <Array as="points">
              <mxPoint x="220" y="290" />
              <mxPoint x="640" y="290" />
            </Array>
          </mxGeometry>
        </mxCell>
        <mxCell id="jVrsydaNmCYnU5L1eRm4-13" style="edgeStyle=orthogonalEdgeStyle;rounded=0;orthogonalLoop=1;jettySize=auto;html=1;exitX=0;exitY=0.5;exitDx=0;exitDy=0;entryX=0;entryY=0.5;entryDx=0;entryDy=0;" parent="1" source="jVrsydaNmCYnU5L1eRm4-1" target="jVrsydaNmCYnU5L1eRm4-2" edge="1">
          <mxGeometry relative="1" as="geometry">
            <Array as="points">
              <mxPoint x="210" y="210" />
              <mxPoint x="210" y="146" />
            </Array>
          </mxGeometry>
        </mxCell>
        <mxCell id="jVrsydaNmCYnU5L1eRm4-45" style="edgeStyle=orthogonalEdgeStyle;rounded=0;orthogonalLoop=1;jettySize=auto;html=1;entryX=1;entryY=0.5;entryDx=0;entryDy=0;endArrow=none;startFill=0;" parent="1" source="jVrsydaNmCYnU5L1eRm4-15" target="jVrsydaNmCYnU5L1eRm4-1" edge="1">
          <mxGeometry relative="1" as="geometry">
            <Array as="points">
              <mxPoint x="650" y="210" />
              <mxPoint x="650" y="210" />
            </Array>
          </mxGeometry>
        </mxCell>
        <mxCell id="jVrsydaNmCYnU5L1eRm4-15" value="&lt;font style=&quot;font-size: 22px;&quot;&gt;+&lt;/font&gt;" style="ellipse;whiteSpace=wrap;html=1;aspect=fixed;" parent="1" vertex="1">
          <mxGeometry x="630" y="200" width="20" height="20" as="geometry" />
        </mxCell>
        <mxCell id="jVrsydaNmCYnU5L1eRm4-19" value="" style="edgeStyle=orthogonalEdgeStyle;rounded=0;orthogonalLoop=1;jettySize=auto;html=1;exitX=0;exitY=0.5;exitDx=0;exitDy=0;entryX=0;entryY=0.5;entryDx=0;entryDy=0;endArrow=none;startFill=0;" parent="1" source="jVrsydaNmCYnU5L1eRm4-1" target="jVrsydaNmCYnU5L1eRm4-18" edge="1">
          <mxGeometry relative="1" as="geometry">
            <mxPoint x="200" y="210" as="sourcePoint" />
            <mxPoint x="570" y="210" as="targetPoint" />
            <Array as="points" />
          </mxGeometry>
        </mxCell>
        <mxCell id="jVrsydaNmCYnU5L1eRm4-18" value="&lt;font style=&quot;font-size: 22px;&quot;&gt;+&lt;/font&gt;" style="ellipse;whiteSpace=wrap;html=1;aspect=fixed;" parent="1" vertex="1">
          <mxGeometry x="310" y="200" width="20" height="20" as="geometry" />
        </mxCell>
        <mxCell id="jVrsydaNmCYnU5L1eRm4-21" value="" style="edgeStyle=orthogonalEdgeStyle;rounded=0;orthogonalLoop=1;jettySize=auto;html=1;entryX=0;entryY=0.5;entryDx=0;entryDy=0;exitX=1;exitY=0.5;exitDx=0;exitDy=0;endArrow=none;startFill=0;" parent="1" source="jVrsydaNmCYnU5L1eRm4-18" target="jVrsydaNmCYnU5L1eRm4-20" edge="1">
          <mxGeometry relative="1" as="geometry">
            <mxPoint x="313.0000000000002" y="230" as="sourcePoint" />
            <mxPoint x="413.0000000000257" y="230" as="targetPoint" />
            <Array as="points">
              <mxPoint x="380" y="210" />
              <mxPoint x="380" y="210" />
            </Array>
          </mxGeometry>
        </mxCell>
        <mxCell id="jVrsydaNmCYnU5L1eRm4-20" value="&lt;font style=&quot;font-size: 22px;&quot;&gt;+&lt;/font&gt;" style="ellipse;whiteSpace=wrap;html=1;aspect=fixed;" parent="1" vertex="1">
          <mxGeometry x="429.99" y="200" width="20" height="20" as="geometry" />
        </mxCell>
        <mxCell id="jVrsydaNmCYnU5L1eRm4-23" value="" style="edgeStyle=orthogonalEdgeStyle;rounded=0;orthogonalLoop=1;jettySize=auto;html=1;exitX=1;exitY=0.5;exitDx=0;exitDy=0;entryX=0;entryY=0.5;entryDx=0;entryDy=0;endArrow=none;startFill=0;" parent="1" source="jVrsydaNmCYnU5L1eRm4-20" target="jVrsydaNmCYnU5L1eRm4-22" edge="1">
          <mxGeometry relative="1" as="geometry">
            <mxPoint x="430" y="210" as="sourcePoint" />
            <mxPoint x="570" y="210" as="targetPoint" />
            <Array as="points">
              <mxPoint x="480" y="210" />
              <mxPoint x="480" y="210" />
            </Array>
          </mxGeometry>
        </mxCell>
        <mxCell id="jVrsydaNmCYnU5L1eRm4-44" style="edgeStyle=orthogonalEdgeStyle;rounded=0;orthogonalLoop=1;jettySize=auto;html=1;" parent="1" source="jVrsydaNmCYnU5L1eRm4-22" target="jVrsydaNmCYnU5L1eRm4-15" edge="1">
          <mxGeometry relative="1" as="geometry" />
        </mxCell>
        <mxCell id="jVrsydaNmCYnU5L1eRm4-22" value="&lt;font style=&quot;font-size: 22px;&quot;&gt;+&lt;/font&gt;" style="ellipse;whiteSpace=wrap;html=1;aspect=fixed;" parent="1" vertex="1">
          <mxGeometry x="555.62" y="200" width="20" height="20" as="geometry" />
        </mxCell>
        <mxCell id="jVrsydaNmCYnU5L1eRm4-28" value="" style="endArrow=none;html=1;rounded=0;entryX=0;entryY=0.5;entryDx=0;entryDy=0;" parent="1" target="jVrsydaNmCYnU5L1eRm4-3" edge="1">
          <mxGeometry width="50" height="50" relative="1" as="geometry">
            <mxPoint x="340" y="210" as="sourcePoint" />
            <mxPoint x="470" y="280" as="targetPoint" />
            <Array as="points">
              <mxPoint x="340" y="146" />
            </Array>
          </mxGeometry>
        </mxCell>
        <mxCell id="jVrsydaNmCYnU5L1eRm4-30" value="X 0.2" style="rounded=1;whiteSpace=wrap;html=1;rotation=90;fillColor=#d5e8d4;strokeColor=#82b366;" parent="1" vertex="1">
          <mxGeometry x="300.88" y="160.87" width="38.25" height="19.13" as="geometry" />
        </mxCell>
        <mxCell id="jVrsydaNmCYnU5L1eRm4-31" value="X 0.2" style="rounded=1;whiteSpace=wrap;html=1;rotation=90;fillColor=#d5e8d4;strokeColor=#82b366;" parent="1" vertex="1">
          <mxGeometry x="420.86" y="160.87" width="38.25" height="19.13" as="geometry" />
        </mxCell>
        <mxCell id="jVrsydaNmCYnU5L1eRm4-39" style="edgeStyle=orthogonalEdgeStyle;rounded=0;orthogonalLoop=1;jettySize=auto;html=1;entryX=0.5;entryY=0;entryDx=0;entryDy=0;" parent="1" edge="1">
          <mxGeometry relative="1" as="geometry">
            <mxPoint x="546.5" y="146" as="sourcePoint" />
            <mxPoint x="565.5" y="200" as="targetPoint" />
            <Array as="points">
              <mxPoint x="565.5" y="146" />
            </Array>
          </mxGeometry>
        </mxCell>
        <mxCell id="jVrsydaNmCYnU5L1eRm4-40" value="X 0.2" style="rounded=1;whiteSpace=wrap;html=1;rotation=90;fillColor=#d5e8d4;strokeColor=#82b366;" parent="1" vertex="1">
          <mxGeometry x="546.5" y="162.12" width="38.25" height="19.13" as="geometry" />
        </mxCell>
        <mxCell id="jVrsydaNmCYnU5L1eRm4-41" value="" style="endArrow=none;html=1;rounded=0;entryX=0;entryY=0.5;entryDx=0;entryDy=0;" parent="1" target="jVrsydaNmCYnU5L1eRm4-4" edge="1">
          <mxGeometry width="50" height="50" relative="1" as="geometry">
            <mxPoint x="460" y="210" as="sourcePoint" />
            <mxPoint x="470" y="280" as="targetPoint" />
            <Array as="points">
              <mxPoint x="460" y="146" />
            </Array>
          </mxGeometry>
        </mxCell>
        <mxCell id="jVrsydaNmCYnU5L1eRm4-43" value="X 0.2" style="rounded=1;whiteSpace=wrap;html=1;rotation=0;fillColor=#d5e8d4;strokeColor=#82b366;" parent="1" vertex="1">
          <mxGeometry x="579" y="200" width="38.25" height="19.13" as="geometry" />
        </mxCell>
        <mxCell id="jVrsydaNmCYnU5L1eRm4-50" style="edgeStyle=orthogonalEdgeStyle;rounded=0;orthogonalLoop=1;jettySize=auto;html=1;entryX=0;entryY=0.5;entryDx=0;entryDy=0;" parent="1" source="jVrsydaNmCYnU5L1eRm4-46" target="CX8VXaGz0tjRuIeD6k8V-45" edge="1">
          <mxGeometry relative="1" as="geometry" />
        </mxCell>
        <mxCell id="jVrsydaNmCYnU5L1eRm4-46" value="&lt;font style=&quot;font-size: 22px;&quot;&gt;Conv2D&lt;/font&gt;" style="rounded=0;whiteSpace=wrap;html=1;rotation=-90;fillColor=#1ba1e2;fontColor=#ffffff;strokeColor=light-dark(#000000, #51afe7);strokeWidth=2;" parent="1" vertex="1">
          <mxGeometry x="680" y="179.57" width="120" height="60" as="geometry" />
        </mxCell>
        <mxCell id="jVrsydaNmCYnU5L1eRm4-48" value="&lt;div&gt;64 → 64 Kernel : 3x3&lt;/div&gt;&lt;div&gt;Stride: 1&lt;/div&gt;" style="text;html=1;align=center;verticalAlign=middle;whiteSpace=wrap;rounded=0;" parent="1" vertex="1">
          <mxGeometry x="702" y="111.25" width="76" height="30" as="geometry" />
        </mxCell>
        <mxCell id="jVrsydaNmCYnU5L1eRm4-54" style="edgeStyle=orthogonalEdgeStyle;rounded=0;orthogonalLoop=1;jettySize=auto;html=1;entryX=0.5;entryY=0;entryDx=0;entryDy=0;" parent="1" source="jVrsydaNmCYnU5L1eRm4-52" target="CX8VXaGz0tjRuIeD6k8V-47" edge="1">
          <mxGeometry relative="1" as="geometry" />
        </mxCell>
        <mxCell id="jVrsydaNmCYnU5L1eRm4-52" value="&lt;font style=&quot;font-size: 21px;&quot;&gt;Interpolation&lt;/font&gt;" style="rounded=0;whiteSpace=wrap;html=1;rotation=-90;fillColor=#d80073;strokeColor=#A50040;strokeWidth=2;fontColor=#ffffff;" parent="1" vertex="1">
          <mxGeometry x="790" y="179.56" width="120" height="60" as="geometry" />
        </mxCell>
        <mxCell id="jVrsydaNmCYnU5L1eRm4-55" value="Scale: 2" style="text;html=1;align=center;verticalAlign=middle;whiteSpace=wrap;rounded=0;" parent="1" vertex="1">
          <mxGeometry x="816" y="121.25" width="76" height="20" as="geometry" />
        </mxCell>
        <mxCell id="jVrsydaNmCYnU5L1eRm4-57" style="edgeStyle=orthogonalEdgeStyle;rounded=0;orthogonalLoop=1;jettySize=auto;html=1;entryX=0.5;entryY=0;entryDx=0;entryDy=0;" parent="1" source="jVrsydaNmCYnU5L1eRm4-56" target="7jAFLYlnToqP1OYzs7xx-8" edge="1">
          <mxGeometry relative="1" as="geometry" />
        </mxCell>
        <mxCell id="jVrsydaNmCYnU5L1eRm4-56" value="&lt;font style=&quot;font-size: 22px;&quot;&gt;Conv2D&lt;/font&gt;" style="rounded=0;whiteSpace=wrap;html=1;rotation=-90;fillColor=#1ba1e2;fontColor=#ffffff;strokeColor=light-dark(#000000, #51afe7);strokeWidth=2;" parent="1" vertex="1">
          <mxGeometry x="1160" y="179.56" width="120" height="60" as="geometry" />
        </mxCell>
        <mxCell id="jVrsydaNmCYnU5L1eRm4-58" value="&lt;div&gt;64 → 64 Kernel : 3x3&lt;/div&gt;&lt;div&gt;Stride: 1&lt;/div&gt;" style="text;html=1;align=center;verticalAlign=middle;whiteSpace=wrap;rounded=0;" parent="1" vertex="1">
          <mxGeometry x="1084" y="111.25" width="76" height="20" as="geometry" />
        </mxCell>
        <mxCell id="jVrsydaNmCYnU5L1eRm4-59" value="&lt;div&gt;64 → 3 Kernel : 3x3&lt;/div&gt;&lt;div&gt;Stride: 1&lt;/div&gt;" style="text;html=1;align=center;verticalAlign=middle;whiteSpace=wrap;rounded=0;" parent="1" vertex="1">
          <mxGeometry x="1182" y="111.25" width="76" height="20" as="geometry" />
        </mxCell>
        <mxCell id="31--sH3kX2460WLfsqPa-1" value="" style="endArrow=classic;html=1;rounded=0;" edge="1" parent="1">
          <mxGeometry width="50" height="50" relative="1" as="geometry">
            <mxPoint x="178" y="210" as="sourcePoint" />
            <mxPoint x="780" y="210" as="targetPoint" />
            <Array as="points">
              <mxPoint x="178" y="350" />
              <mxPoint x="780" y="350" />
            </Array>
          </mxGeometry>
        </mxCell>
        <mxCell id="31--sH3kX2460WLfsqPa-2" value="" style="group" vertex="1" connectable="0" parent="1">
          <mxGeometry x="362" y="360" width="756" height="280" as="geometry" />
        </mxCell>
        <mxCell id="jVrsydaNmCYnU5L1eRm4-60" value="" style="rounded=1;whiteSpace=wrap;html=1;fillColor=#ffe6cc;strokeColor=#d79b00;" parent="31--sH3kX2460WLfsqPa-2" vertex="1">
          <mxGeometry y="40" width="756" height="240" as="geometry" />
        </mxCell>
        <mxCell id="jVrsydaNmCYnU5L1eRm4-61" value="&lt;font style=&quot;font-size: 22px;&quot;&gt;Residual Dense Block&lt;/font&gt;" style="text;html=1;align=center;verticalAlign=middle;resizable=0;points=[];autosize=1;strokeColor=none;fillColor=none;" parent="31--sH3kX2460WLfsqPa-2" vertex="1">
          <mxGeometry x="254.88" width="240" height="40" as="geometry" />
        </mxCell>
        <mxCell id="jVrsydaNmCYnU5L1eRm4-77" style="edgeStyle=orthogonalEdgeStyle;rounded=0;orthogonalLoop=1;jettySize=auto;html=1;entryX=0.5;entryY=0;entryDx=0;entryDy=0;" parent="31--sH3kX2460WLfsqPa-2" source="jVrsydaNmCYnU5L1eRm4-62" target="jVrsydaNmCYnU5L1eRm4-63" edge="1">
          <mxGeometry relative="1" as="geometry" />
        </mxCell>
        <mxCell id="jVrsydaNmCYnU5L1eRm4-62" value="&lt;font style=&quot;font-size: 22px;&quot;&gt;Conv2D&lt;/font&gt;" style="rounded=0;whiteSpace=wrap;html=1;rotation=-90;fillColor=#1ba1e2;fontColor=#ffffff;strokeColor=light-dark(#000000, #51afe7);strokeWidth=2;" parent="31--sH3kX2460WLfsqPa-2" vertex="1">
          <mxGeometry y="130" width="120" height="60" as="geometry" />
        </mxCell>
        <mxCell id="jVrsydaNmCYnU5L1eRm4-78" style="edgeStyle=orthogonalEdgeStyle;rounded=0;orthogonalLoop=1;jettySize=auto;html=1;entryX=0.5;entryY=0;entryDx=0;entryDy=0;" parent="31--sH3kX2460WLfsqPa-2" source="jVrsydaNmCYnU5L1eRm4-63" target="jVrsydaNmCYnU5L1eRm4-65" edge="1">
          <mxGeometry relative="1" as="geometry" />
        </mxCell>
        <mxCell id="jVrsydaNmCYnU5L1eRm4-63" value="&lt;span style=&quot;color: rgb(255, 255, 255);&quot;&gt;&lt;font style=&quot;font-size: 22px;&quot;&gt;LeakyRELU&lt;/font&gt;&lt;/span&gt;" style="rounded=0;whiteSpace=wrap;html=1;rotation=-90;fillColor=#f0a30a;strokeColor=light-dark(#000000, #51afe7);fontColor=#000000;strokeWidth=2;" parent="31--sH3kX2460WLfsqPa-2" vertex="1">
          <mxGeometry x="80" y="130" width="120" height="60" as="geometry" />
        </mxCell>
        <mxCell id="jVrsydaNmCYnU5L1eRm4-79" style="edgeStyle=orthogonalEdgeStyle;rounded=0;orthogonalLoop=1;jettySize=auto;html=1;entryX=0.5;entryY=0;entryDx=0;entryDy=0;" parent="31--sH3kX2460WLfsqPa-2" source="jVrsydaNmCYnU5L1eRm4-65" target="jVrsydaNmCYnU5L1eRm4-66" edge="1">
          <mxGeometry relative="1" as="geometry" />
        </mxCell>
        <mxCell id="jVrsydaNmCYnU5L1eRm4-65" value="&lt;font style=&quot;font-size: 22px;&quot;&gt;Conv2D&lt;/font&gt;" style="rounded=0;whiteSpace=wrap;html=1;rotation=-90;fillColor=#1ba1e2;fontColor=#ffffff;strokeColor=light-dark(#000000, #51afe7);strokeWidth=2;" parent="31--sH3kX2460WLfsqPa-2" vertex="1">
          <mxGeometry x="159.5" y="130" width="120" height="60" as="geometry" />
        </mxCell>
        <mxCell id="jVrsydaNmCYnU5L1eRm4-80" style="edgeStyle=orthogonalEdgeStyle;rounded=0;orthogonalLoop=1;jettySize=auto;html=1;" parent="31--sH3kX2460WLfsqPa-2" source="jVrsydaNmCYnU5L1eRm4-66" target="jVrsydaNmCYnU5L1eRm4-67" edge="1">
          <mxGeometry relative="1" as="geometry" />
        </mxCell>
        <mxCell id="jVrsydaNmCYnU5L1eRm4-66" value="&lt;span style=&quot;color: rgb(255, 255, 255);&quot;&gt;&lt;font style=&quot;font-size: 22px;&quot;&gt;LeakyRELU&lt;/font&gt;&lt;/span&gt;" style="rounded=0;whiteSpace=wrap;html=1;rotation=-90;fillColor=#f0a30a;strokeColor=light-dark(#000000, #51afe7);fontColor=#000000;strokeWidth=2;" parent="31--sH3kX2460WLfsqPa-2" vertex="1">
          <mxGeometry x="236" y="130" width="120" height="60" as="geometry" />
        </mxCell>
        <mxCell id="jVrsydaNmCYnU5L1eRm4-81" style="edgeStyle=orthogonalEdgeStyle;rounded=0;orthogonalLoop=1;jettySize=auto;html=1;entryX=0.5;entryY=0;entryDx=0;entryDy=0;" parent="31--sH3kX2460WLfsqPa-2" source="jVrsydaNmCYnU5L1eRm4-67" target="jVrsydaNmCYnU5L1eRm4-68" edge="1">
          <mxGeometry relative="1" as="geometry" />
        </mxCell>
        <mxCell id="jVrsydaNmCYnU5L1eRm4-67" value="&lt;font style=&quot;font-size: 22px;&quot;&gt;Conv2D&lt;/font&gt;" style="rounded=0;whiteSpace=wrap;html=1;rotation=-90;fillColor=#1ba1e2;fontColor=#ffffff;strokeColor=light-dark(#000000, #51afe7);strokeWidth=2;" parent="31--sH3kX2460WLfsqPa-2" vertex="1">
          <mxGeometry x="314.88" y="130" width="120" height="60" as="geometry" />
        </mxCell>
        <mxCell id="jVrsydaNmCYnU5L1eRm4-82" style="edgeStyle=orthogonalEdgeStyle;rounded=0;orthogonalLoop=1;jettySize=auto;html=1;entryX=0.5;entryY=0;entryDx=0;entryDy=0;" parent="31--sH3kX2460WLfsqPa-2" source="jVrsydaNmCYnU5L1eRm4-68" target="jVrsydaNmCYnU5L1eRm4-69" edge="1">
          <mxGeometry relative="1" as="geometry" />
        </mxCell>
        <mxCell id="jVrsydaNmCYnU5L1eRm4-68" value="&lt;span style=&quot;color: rgb(255, 255, 255);&quot;&gt;&lt;font style=&quot;font-size: 22px;&quot;&gt;LeakyRELU&lt;/font&gt;&lt;/span&gt;" style="rounded=0;whiteSpace=wrap;html=1;rotation=-90;fillColor=#f0a30a;strokeColor=light-dark(#000000, #51afe7);fontColor=#000000;strokeWidth=2;" parent="31--sH3kX2460WLfsqPa-2" vertex="1">
          <mxGeometry x="396" y="130" width="120" height="60" as="geometry" />
        </mxCell>
        <mxCell id="jVrsydaNmCYnU5L1eRm4-83" style="edgeStyle=orthogonalEdgeStyle;rounded=0;orthogonalLoop=1;jettySize=auto;html=1;" parent="31--sH3kX2460WLfsqPa-2" source="jVrsydaNmCYnU5L1eRm4-69" target="jVrsydaNmCYnU5L1eRm4-70" edge="1">
          <mxGeometry relative="1" as="geometry" />
        </mxCell>
        <mxCell id="jVrsydaNmCYnU5L1eRm4-69" value="&lt;font style=&quot;font-size: 22px;&quot;&gt;Conv2D&lt;/font&gt;" style="rounded=0;whiteSpace=wrap;html=1;rotation=-90;fillColor=#1ba1e2;fontColor=#ffffff;strokeColor=light-dark(#000000, #51afe7);strokeWidth=2;" parent="31--sH3kX2460WLfsqPa-2" vertex="1">
          <mxGeometry x="476" y="130" width="120" height="60" as="geometry" />
        </mxCell>
        <mxCell id="jVrsydaNmCYnU5L1eRm4-84" style="edgeStyle=orthogonalEdgeStyle;rounded=0;orthogonalLoop=1;jettySize=auto;html=1;entryX=0.5;entryY=0;entryDx=0;entryDy=0;" parent="31--sH3kX2460WLfsqPa-2" source="jVrsydaNmCYnU5L1eRm4-70" target="jVrsydaNmCYnU5L1eRm4-75" edge="1">
          <mxGeometry relative="1" as="geometry" />
        </mxCell>
        <mxCell id="jVrsydaNmCYnU5L1eRm4-70" value="&lt;span style=&quot;color: rgb(255, 255, 255);&quot;&gt;&lt;font style=&quot;font-size: 22px;&quot;&gt;LeakyRELU&lt;/font&gt;&lt;/span&gt;" style="rounded=0;whiteSpace=wrap;html=1;rotation=-90;fillColor=#f0a30a;strokeColor=light-dark(#000000, #51afe7);fontColor=#000000;strokeWidth=2;" parent="31--sH3kX2460WLfsqPa-2" vertex="1">
          <mxGeometry x="556" y="130" width="120" height="60" as="geometry" />
        </mxCell>
        <mxCell id="jVrsydaNmCYnU5L1eRm4-71" value="&lt;div&gt;64→ 32 Kernel : 3x3&lt;/div&gt;&lt;div&gt;Stride: 1&lt;/div&gt;" style="text;html=1;align=center;verticalAlign=middle;whiteSpace=wrap;rounded=0;" parent="31--sH3kX2460WLfsqPa-2" vertex="1">
          <mxGeometry x="30" y="60" width="76" height="30" as="geometry" />
        </mxCell>
        <mxCell id="jVrsydaNmCYnU5L1eRm4-72" value="&lt;div&gt;96 → 32 Kernel : 3x3&lt;/div&gt;&lt;div&gt;Stride: 1&lt;/div&gt;" style="text;html=1;align=center;verticalAlign=middle;whiteSpace=wrap;rounded=0;" parent="31--sH3kX2460WLfsqPa-2" vertex="1">
          <mxGeometry x="181.5" y="60" width="76" height="30" as="geometry" />
        </mxCell>
        <mxCell id="jVrsydaNmCYnU5L1eRm4-73" value="&lt;div&gt;&amp;nbsp;128 → 32 Kernel : 3x3&lt;/div&gt;&lt;div&gt;Stride: 1&lt;/div&gt;" style="text;html=1;align=center;verticalAlign=middle;whiteSpace=wrap;rounded=0;" parent="31--sH3kX2460WLfsqPa-2" vertex="1">
          <mxGeometry x="336.88" y="60" width="76" height="30" as="geometry" />
        </mxCell>
        <mxCell id="jVrsydaNmCYnU5L1eRm4-74" value="&lt;div&gt;160 → 32 Kernel : 3x3&lt;/div&gt;&lt;div&gt;Stride: 1&lt;/div&gt;" style="text;html=1;align=center;verticalAlign=middle;whiteSpace=wrap;rounded=0;" parent="31--sH3kX2460WLfsqPa-2" vertex="1">
          <mxGeometry x="498.87" y="60" width="76" height="30" as="geometry" />
        </mxCell>
        <mxCell id="jVrsydaNmCYnU5L1eRm4-75" value="&lt;font style=&quot;font-size: 22px;&quot;&gt;Conv2D&lt;/font&gt;" style="rounded=0;whiteSpace=wrap;html=1;rotation=-90;fillColor=#1ba1e2;fontColor=#ffffff;strokeColor=light-dark(#000000, #51afe7);strokeWidth=2;" parent="31--sH3kX2460WLfsqPa-2" vertex="1">
          <mxGeometry x="636" y="130" width="120" height="60" as="geometry" />
        </mxCell>
        <mxCell id="jVrsydaNmCYnU5L1eRm4-76" value="&lt;div&gt;192 → 64 Kernel : 3x3&lt;/div&gt;&lt;div&gt;Stride: 1&lt;/div&gt;" style="text;html=1;align=center;verticalAlign=middle;whiteSpace=wrap;rounded=0;" parent="31--sH3kX2460WLfsqPa-2" vertex="1">
          <mxGeometry x="656" y="60" width="76" height="30" as="geometry" />
        </mxCell>
        <mxCell id="jVrsydaNmCYnU5L1eRm4-87" value="" style="endArrow=classic;html=1;rounded=0;endFill=1;" parent="31--sH3kX2460WLfsqPa-2" edge="1">
          <mxGeometry width="50" height="50" relative="1" as="geometry">
            <mxPoint x="180" y="160" as="sourcePoint" />
            <mxPoint x="330" y="160" as="targetPoint" />
            <Array as="points">
              <mxPoint x="180" y="240" />
              <mxPoint x="330" y="240" />
            </Array>
          </mxGeometry>
        </mxCell>
        <mxCell id="jVrsydaNmCYnU5L1eRm4-88" value="" style="endArrow=classic;html=1;rounded=0;endFill=1;" parent="31--sH3kX2460WLfsqPa-2" edge="1">
          <mxGeometry width="50" height="50" relative="1" as="geometry">
            <mxPoint x="180" y="160" as="sourcePoint" />
            <mxPoint x="493" y="160" as="targetPoint" />
            <Array as="points">
              <mxPoint x="180" y="240" />
              <mxPoint x="494" y="240" />
            </Array>
          </mxGeometry>
        </mxCell>
        <mxCell id="jVrsydaNmCYnU5L1eRm4-89" style="edgeStyle=orthogonalEdgeStyle;rounded=0;orthogonalLoop=1;jettySize=auto;html=1;entryX=0.5;entryY=0;entryDx=0;entryDy=0;exitX=0;exitY=0.5;exitDx=0;exitDy=0;" parent="31--sH3kX2460WLfsqPa-2" source="jVrsydaNmCYnU5L1eRm4-60" target="jVrsydaNmCYnU5L1eRm4-62" edge="1">
          <mxGeometry relative="1" as="geometry">
            <Array as="points">
              <mxPoint y="160" />
              <mxPoint y="160" />
            </Array>
          </mxGeometry>
        </mxCell>
        <mxCell id="jVrsydaNmCYnU5L1eRm4-90" value="" style="endArrow=classic;html=1;rounded=0;" parent="31--sH3kX2460WLfsqPa-2" edge="1">
          <mxGeometry width="50" height="50" relative="1" as="geometry">
            <mxPoint x="10" y="160" as="sourcePoint" />
            <mxPoint x="180" y="160" as="targetPoint" />
            <Array as="points">
              <mxPoint x="10" y="240" />
              <mxPoint x="180" y="240" />
            </Array>
          </mxGeometry>
        </mxCell>
        <mxCell id="jVrsydaNmCYnU5L1eRm4-91" value="" style="endArrow=classic;html=1;rounded=0;endFill=1;" parent="31--sH3kX2460WLfsqPa-2" edge="1">
          <mxGeometry width="50" height="50" relative="1" as="geometry">
            <mxPoint x="330" y="160" as="sourcePoint" />
            <mxPoint x="655" y="160" as="targetPoint" />
            <Array as="points">
              <mxPoint x="330" y="240" />
              <mxPoint x="656" y="240" />
            </Array>
          </mxGeometry>
        </mxCell>
      </root>
    </mxGraphModel>
  </diagram>
</mxfile>
